<?xml version="1.0" standalone="no"?>
<!DOCTYPE svg PUBLIC "-//W3C//DTD SVG 20010904//EN"
 "http://www.w3.org/TR/2001/REC-SVG-20010904/DTD/svg10.dtd">
<svg version="1.0" xmlns="http://www.w3.org/2000/svg"
 width="512.000000pt" height="338.000000pt" viewBox="0 0 512.000000 338.000000"
 preserveAspectRatio="xMidYMid meet">

<g transform="translate(0.000000,338.000000) scale(0.100000,-0.100000)"
fill="#000000" stroke="none">
<path d="M1605 3363 c-10 -3 -258 -77 -550 -164 -410 -122 -534 -163 -547
-180 -25 -30 -22 -71 5 -97 34 -32 994 -318 1117 -333 157 -19 231 -4 682 137
219 68 402 124 408 124 6 0 10 -72 10 -204 0 -172 -2 -205 -15 -210 -12 -4
-15 -23 -15 -81 0 -58 3 -77 15 -81 8 -4 15 -15 15 -26 0 -11 -7 -26 -15 -34
-38 -38 -7 -74 65 -74 72 0 103 36 65 74 -19 19 -19 52 0 60 12 4 15 23 15 81
0 58 -3 77 -15 81 -13 5 -15 40 -15 228 l0 222 41 18 c65 29 78 95 26 129 -13
8 -265 87 -561 176 -524 157 -539 161 -624 160 -48 -1 -96 -4 -107 -6z"/>
<path d="M920 2427 l0 -214 30 -44 c16 -24 30 -50 30 -56 0 -15 -16 -17 -25
-3 -12 19 -54 10 -70 -14 -25 -37 -30 -157 -11 -245 18 -86 41 -129 83 -156
26 -17 32 -28 37 -77 18 -152 86 -308 189 -430 50 -59 64 -84 73 -128 14 -67
6 -78 -78 -121 -88 -44 -186 -74 -476 -145 -312 -75 -373 -94 -465 -142 -138
-71 -181 -164 -212 -457 -9 -82 -18 -158 -21 -167 -5 -17 121 -18 2556 -18
2435 0 2561 1 2556 18 -2 9 -10 69 -16 132 -21 204 -61 285 -164 334 -29 14
-149 50 -267 81 -351 92 -499 147 -499 184 0 38 21 82 62 132 56 70 95 159
110 252 11 67 15 75 40 85 76 28 128 301 63 326 -14 5 -14 9 0 35 12 23 15 65
15 185 0 85 -3 157 -7 159 -5 3 -114 -27 -243 -66 -232 -69 -237 -70 -355 -71
l-120 -1 -220 68 c-121 38 -228 71 -237 73 -17 5 -18 -6 -18 -143 0 -130 3
-153 20 -186 20 -37 20 -38 1 -28 -50 27 -71 -5 -71 -108 0 -89 23 -163 60
-194 22 -19 31 -38 40 -85 22 -124 67 -217 153 -319 44 -53 58 -117 30 -138
-32 -25 -118 -63 -190 -84 l-70 -21 -64 29 c-64 29 -152 54 -515 150 -219 58
-392 116 -459 155 -36 21 -45 32 -45 54 0 55 23 108 69 158 83 91 150 245 166
381 6 56 9 62 36 74 60 24 107 118 129 254 8 49 8 83 0 121 -13 61 -34 80 -73
65 -21 -8 -24 -7 -20 7 2 10 18 25 34 34 18 11 38 36 51 65 20 45 20 57 14
253 -4 112 -8 206 -9 207 -2 1 -149 -41 -327 -92 -179 -52 -364 -100 -412
-107 -151 -20 -236 -1 -870 198 -17 5 -18 -9 -18 -209z"/>
<path d="M3370 2340 c-260 -78 -399 -125 -407 -136 -18 -25 -16 -48 6 -69 11
-9 183 -67 383 -128 l363 -110 135 0 135 0 300 94 300 95 3 -145 c2 -122 0
-146 -13 -153 -22 -13 -21 -104 3 -117 16 -9 16 -11 0 -38 -24 -41 -11 -55 48
-51 42 3 49 6 52 26 2 12 -1 22 -7 22 -6 0 -11 9 -11 20 0 11 5 20 10 20 6 0
10 27 10 60 0 33 -4 60 -10 60 -6 0 -10 59 -10 158 l1 157 32 20 c41 26 48 67
15 89 -13 8 -196 67 -406 130 -350 106 -391 116 -460 115 -68 0 -121 -14 -472
-119z"/>
</g>
</svg>
