<?xml version="1.0" standalone="no"?>
<!DOCTYPE svg PUBLIC "-//W3C//DTD SVG 20010904//EN"
 "http://www.w3.org/TR/2001/REC-SVG-20010904/DTD/svg10.dtd">
<svg version="1.0" xmlns="http://www.w3.org/2000/svg"
 width="512.000000pt" height="258.000000pt" viewBox="0 0 512.000000 258.000000"
 preserveAspectRatio="xMidYMid meet">

<g transform="translate(0.000000,258.000000) scale(0.100000,-0.100000)"
fill="#000000" stroke="none">
<path d="M2482 2572 c-7 -4 -23 -35 -35 -68 -23 -59 -23 -59 -113 -103 -164
-81 -263 -210 -286 -373 -6 -43 -8 -136 -4 -223 l6 -150 -30 -17 c-40 -23 -72
-93 -64 -139 11 -56 45 -114 203 -344 83 -120 151 -226 151 -234 0 -28 -125
-138 -196 -174 -38 -19 -121 -51 -184 -71 -63 -20 -176 -56 -250 -80 l-135
-44 -48 24 c-51 27 -122 85 -138 116 -9 16 11 51 116 207 160 238 183 310 114
350 l-28 16 2 160 c2 148 0 164 -22 220 -30 76 -116 161 -228 228 -99 59 -231
107 -296 107 -46 0 -49 -1 -63 -37 -24 -62 -28 -66 -98 -101 -82 -42 -146
-104 -183 -180 -27 -54 -28 -65 -31 -221 l-4 -165 -28 -26 c-57 -53 -50 -115
27 -227 25 -38 83 -122 129 -189 l83 -121 -23 -31 c-57 -78 -135 -120 -346
-185 -187 -58 -241 -80 -306 -123 -55 -37 -99 -85 -128 -141 -21 -41 -46 -147
-46 -195 l0 -38 2549 0 c2272 0 2550 2 2561 15 17 21 8 198 -14 248 -27 66
-131 182 -207 233 -42 28 -136 73 -228 109 -86 34 -175 72 -199 84 -47 24 -82
72 -82 113 0 26 2 26 73 32 39 3 140 8 222 12 83 3 170 9 195 13 l45 6 -36 22
c-64 40 -138 128 -179 215 -49 103 -76 210 -89 353 -15 162 -52 247 -146 334
-223 205 -643 135 -768 -130 -34 -73 -43 -111 -67 -305 -22 -180 -45 -267 -88
-334 -34 -54 -96 -116 -137 -137 l-30 -16 30 -9 c17 -5 134 -14 260 -20 l231
-12 -7 -45 c-8 -62 -14 -72 -52 -98 -36 -24 -198 -83 -229 -83 -36 0 -349 100
-422 135 -89 43 -175 110 -201 158 l-19 36 34 48 c105 148 263 389 290 443 42
83 45 147 11 184 -13 14 -32 28 -41 31 -14 5 -16 25 -12 186 5 204 -3 259 -50
353 -56 110 -184 220 -365 310 -135 67 -315 113 -351 88z"/>
</g>
</svg>
